# xmcd
#
# Track frame offsets:
#	150
#	20059
#	32827
#	49453
#	63633
#	82480
#	99692
#	117558
#	127478
#	142468
#
# Disc length: 2177 seconds
#
# Revision: 0
# Processed by: cddbd v1.5.2PL0 Copyright (c) Steve Scherf et al.
# Submitted via: EasyCDDAExtractor 10.2.0.1
#
DISCID=b0087f0a
DTITLE=Various Artist - Sims Records Vol. 22
DYEAR=2005
DGENRE=Gospel
TTITLE0=Gwen McCrae - Sending Down The Latter Rain
TTITLE1=The Taylors - Dusty Dirt Road
TTITLE2=Dale Johnson - I Believe I'll Be Here When Jesus Comes
TTITLE3=The Blankenships - By The Cross
TTITLE4=Ashley Wigley - When I Called The Lord Up
TTITLE5=Jane Thacker - Just Hold On
TTITLE6=Heavenly Praise - Her Cold Hands
TTITLE7=Nancy Jo Kidd - Reach Down And Touch Me
TTITLE8=Kelli Roberts - Shouting Glory
TTITLE9=Blankenship Sisters - He Will Be There
EXTD=
EXTT0=
EXTT1=
EXTT2=
EXTT3=
EXTT4=
EXTT5=
EXTT6=
EXTT7=
EXTT8=
EXTT9=
PLAYORDER=
